<svg xmlns="http://www.w3.org/2000/svg" width="41.652" height="51.705" viewBox="0 0 41.652 51.705"><g transform="translate(-640.625 -142.295)"><path d="M555.462,464.835v6.428a3.6,3.6,0,0,1-1.278,2.52,13.728,13.728,0,0,1-4.3,2.632,45.366,45.366,0,0,1-30.495,0,13.688,13.688,0,0,1-4.289-2.622,3.6,3.6,0,0,1-1.288-2.525V464.83a17.528,17.528,0,0,0,4.328,2.456,48.6,48.6,0,0,0,32.991,0A17.61,17.61,0,0,0,555.462,464.835Z" transform="translate(126.815 -285.051)" fill="#283c5e"/><path d="M555.462,440.12v6.433a3.609,3.609,0,0,1-1.278,2.52,13.729,13.729,0,0,1-4.3,2.632,45.445,45.445,0,0,1-30.495,0,13.688,13.688,0,0,1-4.289-2.622,3.6,3.6,0,0,1-1.288-2.525V440.12a17.686,17.686,0,0,0,4.328,2.456,48.674,48.674,0,0,0,32.991,0A17.628,17.628,0,0,0,555.462,440.12Z" transform="translate(126.815 -272.384)" fill="#283c5e"/><path d="M555.462,415.41v6.433a3.59,3.59,0,0,1-1.278,2.515,13.639,13.639,0,0,1-4.3,2.632,45.406,45.406,0,0,1-30.495,0,13.779,13.779,0,0,1-4.289-2.622,3.6,3.6,0,0,1-1.288-2.525V415.41a17.687,17.687,0,0,0,4.328,2.456,48.673,48.673,0,0,0,32.991,0A17.628,17.628,0,0,0,555.462,415.41Z" transform="translate(126.815 -259.717)" fill="#283c5e"/><path d="M555.462,395.708a3.6,3.6,0,0,1-1.278,2.515,13.605,13.605,0,0,1-4.308,2.632,45.39,45.39,0,0,1-30.49,0,13.777,13.777,0,0,1-4.289-2.622,3.14,3.14,0,0,1-.01-5.064,13.717,13.717,0,0,1,4.308-2.632,45.71,45.71,0,0,1,30.49,0,13.666,13.666,0,0,1,4.289,2.622A3.625,3.625,0,0,1,555.462,395.708Z" transform="translate(126.815 -245.625)" fill="#283c5e"/></g></svg>