<svg xmlns="http://www.w3.org/2000/svg" width="57.874" height="52.7" viewBox="0 0 57.874 52.7"><path d="M283.94,276.22v42.787c0,4.1,3.031,7.391,6.769,7.391s6.779-3.3,6.779-7.391V276.22Zm12.632,25.117a2.654,2.654,0,0,0-1.461.958,1.436,1.436,0,0,1-2.474,0,2.349,2.349,0,0,0-3.86,0,1.566,1.566,0,0,1-1.234.707,1.542,1.542,0,0,1-1.231-.707,2.693,2.693,0,0,0-1.458-.958l0-17.305h11.714Z" transform="translate(-282.673 -274.319)" fill="#283c5e" fill-rule="evenodd" opacity="0.997"/><path d="M298.438,332.89v25.1a5.868,5.868,0,0,1-11.708-.043V332.929h-.01v-.049h.01v0a2.677,2.677,0,0,1,1.456.954,1.587,1.587,0,0,0,1.154.7.573.573,0,0,0,.076,0c.036,0,.072,0,.105,0a1.592,1.592,0,0,0,1.157-.7,2.593,2.593,0,0,1,1.582-.98c.053-.007.109-.013.164-.016a1.188,1.188,0,0,1,.155-.007c.063,0,.122,0,.181.007s.112.01.164.016a2.593,2.593,0,0,1,1.581.98,1.781,1.781,0,0,0,.973.676,1.133,1.133,0,0,0,.187.023.651.651,0,0,0,.079,0c.036,0,.072,0,.105,0a1.144,1.144,0,0,0,.187-.023,1.763,1.763,0,0,0,.97-.676A2.661,2.661,0,0,1,298.438,332.89Z" transform="translate(-284.538 -312.302)" fill="#283c5e" fill-rule="evenodd"/><path d="M298.438,299.96v17.305a2.654,2.654,0,0,0-1.461.958,1.436,1.436,0,0,1-2.475,0,2.349,2.349,0,0,0-3.86,0,1.566,1.566,0,0,1-1.234.708,1.542,1.542,0,0,1-1.231-.708,2.693,2.693,0,0,0-1.458-.958l0-17.305Z" transform="translate(-284.538 -291.234)" fill="#fff" fill-rule="evenodd"/><path d="M281.235,270.443h13.724a1.206,1.206,0,0,1,1.143,1.26V278a1.206,1.206,0,0,1-1.143,1.261H281.235A1.206,1.206,0,0,1,280.091,278v-6.3A1.206,1.206,0,0,1,281.235,270.443Z" transform="translate(-280.09 -270.443)" fill="#283c5e"/><g transform="translate(20.083 14.901)"><path d="M416.146,215.752v5.2H380.4v-5.2c0-.954.534-1.732,1.193-1.732h33.36C415.612,214.02,416.144,214.8,416.146,215.752Z" transform="translate(-379.333 -212.952)" fill="#283c5e"/><path d="M421.133,247.14v9.223H390.19v-2.287h3.57a1.158,1.158,0,1,0,.109-2.313.827.827,0,0,0-.109,0h-3.57V247.14Z" transform="translate(-386.81 -238.248)" fill="#fff" opacity="0.594"/><path d="M411.1,209.5H378.552c-1.84,0-2.665,1.361-2.667,3.2q0,1.839,0,4.578a1.107,1.107,0,0,0,1.106,1.113h1.117v25.564c-.09,2.355.444,3.423,3.336,3.333h26.674c1.911.09,3.513-.444,3.336-3.333V218.392h1.11a1.111,1.111,0,0,0,1.11-1.11v-4.449C413.671,210.993,413.23,209.5,411.1,209.5Zm-28.155,13.516a.856.856,0,0,0-.109,0h-3.57v-4.623h30.943V244.98a1.175,1.175,0,0,1-1.188,1.158H380.453a1.182,1.182,0,0,1-1.1-.725,1.141,1.141,0,0,1-.09-.432V239.2h3.57a1.158,1.158,0,1,0,.109-2.313.828.828,0,0,0-.109,0h-3.57v-4.623h3.57a1.158,1.158,0,1,0,.109-2.313.85.85,0,0,0-.109,0h-3.57v-4.623h3.57a1.158,1.158,0,1,0,.109-2.313ZM412.7,217.5H376.95v-5.2c0-.954.534-1.732,1.193-1.732H411.5c.659,0,1.191.777,1.193,1.732Z" transform="translate(-375.883 -209.5)" fill="#283c5e"/><path d="M421.133,286.18v17.364a1.175,1.175,0,0,1-1.188,1.158H391.381a1.181,1.181,0,0,1-1.1-.725,1.141,1.141,0,0,1-.09-.432v-5.779h3.57a1.158,1.158,0,1,0,.109-2.313.86.86,0,0,0-.109,0h-3.57v-4.623h3.57a1.158,1.158,0,1,0,.109-2.313.807.807,0,0,0-.109,0h-3.57V286.18Z" transform="translate(-386.81 -268.065)" fill="#fff"/></g></svg>